{
	"asset":{
		"version":"2.0",
		"generator":"Created using the official Cinema 4D glTF Exporter 1.000x284978"
	},
	"scenes":[{
		"nodes":[0]
	}],
	"bufferViews":[{
		"buffer":0,
		"byteOffset":0,
		"byteLength":51792,
		"target":34963
	},
	{
		"buffer":0,
		"byteOffset":51792,
		"byteLength":142528,
		"target":34962,
		"byteStride":32
	}],
	"nodes":[{
		"name":"Remesh",
		"mesh":0
	}],
	"meshes":[{
		"name":"Remesh",
		"primitives":[{
			"attributes":{
				"POSITION":1,
				"NORMAL":2,
				"TEXCOORD_0":3
			},
			"indices":0
		}]
	}],
	"accessors":[{
		"bufferView":0,
		"type":"SCALAR",
		"componentType":5123,
		"count":25896,
		"byteOffset":0,
		"min":[0],
		"max":[4453]
	},
	{
		"bufferView":1,
		"type":"VEC3",
		"componentType":5126,
		"count":4454,
		"byteOffset":0,
		"min":[-93.880126953125,
		-109.60637664794922,
		-53.68741989135742],
		"max":[93.880126953125,
		169.21646118164063,
		53.68741989135742]
	},
	{
		"bufferView":1,
		"type":"VEC3",
		"componentType":5126,
		"count":4454,
		"byteOffset":12,
		"min":[-1.0,
		-1.0,
		-1.0],
		"max":[1.0,
		1.0,
		1.0]
	},
	{
		"bufferView":1,
		"type":"VEC2",
		"componentType":5126,
		"count":4454,
		"byteOffset":24,
		"min":[0.007269257213920355,
		0.0072692567482590679],
		"max":[0.9927307367324829,
		0.8007348775863648]
	}],
	"buffers":[{
		"uri":"data:application/octet-stream;base64,",
		"byteLength":194320
	}]
}