{
	"asset":{
		"version":"2.0",
		"generator":"Created using the official Cinema 4D glTF Exporter 1.000x284978"
	},
	"scenes":[{
		"nodes":[0]
	}],
	"bufferViews":[{
		"buffer":0,
		"byteOffset":0,
		"byteLength":83184,
		"target":34963
	},
	{
		"buffer":0,
		"byteOffset":83184,
		"byteLength":228736,
		"target":34962,
		"byteStride":32
	}],
	"nodes":[{
		"name":"Remesh.1",
		"mesh":0
	}],
	"meshes":[{
		"name":"Remesh.1",
		"primitives":[{
			"attributes":{
				"POSITION":1,
				"NORMAL":2,
				"TEXCOORD_0":3
			},
			"indices":0
		}]
	}],
	"accessors":[{
		"bufferView":0,
		"type":"SCALAR",
		"componentType":5123,
		"count":41592,
		"byteOffset":0,
		"min":[0],
		"max":[7147]
	},
	{
		"bufferView":1,
		"type":"VEC3",
		"componentType":5126,
		"count":7148,
		"byteOffset":0,
		"min":[-93.880126953125,
		-109.60637664794922,
		-53.68741989135742],
		"max":[93.880126953125,
		134.42137145996095,
		53.68741989135742]
	},
	{
		"bufferView":1,
		"type":"VEC3",
		"componentType":5126,
		"count":7148,
		"byteOffset":12,
		"min":[-1.0,
		-1.0,
		-1.0],
		"max":[1.0,
		1.0,
		1.0]
	},
	{
		"bufferView":1,
		"type":"VEC2",
		"componentType":5126,
		"count":7148,
		"byteOffset":24,
		"min":[0.008232295513153077,
		0.003689236007630825],
		"max":[0.9917676448822022,
		0.9963107109069824]
	}],
	"buffers":[{
		"uri":"data:application/octet-stream;base64,",
		"byteLength":311920
	}]
}