{
	"asset":{
		"version":"2.0",
		"generator":"Created using the official Cinema 4D glTF Exporter 1.000x284978"
	},
	"scenes":[{
		"nodes":[0]
	}],
	"bufferViews":[{
		"buffer":0,
		"byteOffset":0,
		"byteLength":117504,
		"target":34963
	},
	{
		"buffer":0,
		"byteOffset":117504,
		"byteLength":325952,
		"target":34962,
		"byteStride":32
	}],
	"nodes":[{
		"name":"Remesh",
		"mesh":0
	}],
	"meshes":[{
		"name":"Remesh",
		"primitives":[{
			"attributes":{
				"POSITION":1,
				"NORMAL":2,
				"TEXCOORD_0":3
			},
			"indices":0
		}]
	}],
	"accessors":[{
		"bufferView":0,
		"type":"SCALAR",
		"componentType":5123,
		"count":58752,
		"byteOffset":0,
		"min":[0],
		"max":[10185]
	},
	{
		"bufferView":1,
		"type":"VEC3",
		"componentType":5126,
		"count":10186,
		"byteOffset":0,
		"min":[-110.05514526367188,
		-112.89151000976563,
		-53.68741989135742],
		"max":[107.25595092773438,
		134.42137145996095,
		53.68741989135742]
	},
	{
		"bufferView":1,
		"type":"VEC3",
		"componentType":5126,
		"count":10186,
		"byteOffset":12,
		"min":[-1.0,
		-1.0,
		-1.0],
		"max":[1.0,
		1.0,
		1.0]
	},
	{
		"bufferView":1,
		"type":"VEC2",
		"componentType":5126,
		"count":10186,
		"byteOffset":24,
		"min":[0.007997709326446057,
		0.0031886473298072817],
		"max":[0.9920023083686829,
		0.9968113899230957]
	}],
	"buffers":[{
		"uri":"data:application/octet-stream;base64,",
		"byteLength":443456
	}]
}