{
	"asset":{
		"generator":"Created using the official Cinema 4D glTF Exporter 1.000x284978",
		"version":"2.0"
	},
	"scenes":[{
		"nodes":[0]
	}],
	"nodes":[{
		"name":"shapeC",
		"translation":[5.684342156072554e-17,
		0.0,
		0.0],
		"rotation":[-0.24836465716362,
		0.0,
		0.0,
		-0.9686666131019592],
		"scale":[1.0,
		1.0,
		1.0],
		"mesh":0
	}],
	"meshes":[{
		"name":"shapeC",
		"primitives":[{
			"attributes":{
				"POSITION":1,
				"NORMAL":2,
				"TEXCOORD_0":3
			},
			"indices":0,
			"material":0
		}]
	}],
	"accessors":[{
		"bufferView":0,
		"type":"SCALAR",
		"componentType":5123,
		"count":7062,
		"byteOffset":0,
		"min":[0],
		"max":[1243]
	},
	{
		"bufferView":1,
		"type":"VEC3",
		"componentType":5126,
		"count":1244,
		"byteOffset":0,
		"min":[-5.411653518676758,
		-6.346096038818359,
		-5.208810806274414],
		"max":[4.980379104614258,
		5.831707954406738,
		3.5590484142303469]
	},
	{
		"bufferView":1,
		"type":"VEC3",
		"componentType":5126,
		"count":1244,
		"byteOffset":12,
		"min":[-0.9898756146430969,
		-0.9916802644729614,
		-0.9980674386024475],
		"max":[0.9940773844718933,
		0.9939173460006714,
		0.9949324727058411]
	},
	{
		"bufferView":1,
		"type":"VEC2",
		"componentType":5126,
		"count":1244,
		"byteOffset":24,
		"min":[0.0007619162206538022,
		0.015616684220731259],
		"max":[1.0908933877944947,
		0.741139829158783]
	}],
	"bufferViews":[{
		"target":34963,
		"buffer":0,
		"byteOffset":0,
		"byteLength":14124
	},
	{
		"target":34962,
		"buffer":0,
		"byteOffset":14124,
		"byteLength":39808,
		"byteStride":32
	}],
	"buffers":[{
		"uri":"data:application/octet-stream;base64,",
		"byteLength":53932
	}],
	"images":[{
		"uri":"data:image/jpeg;base64,"
	}],
	"samplers":[{
		"magFilter":9729,
		"minFilter":9729,
		"wrapS":10497,
		"wrapT":10497
	}],
	"textures":[{
		"sampler":0,
		"source":0
	}],
	"materials":[{
		"pbrMetallicRoughness":{
			"baseColorTexture":{
				"index":0
			},
			"baseColorFactor":[0.8,
			0.8,
			0.8,
			1.0],
			"metallicFactor":0.0,
			"roughnessFactor":0.5
		},
		"emissiveFactor":[0.0,
		0.0,
		0.0],
		"alphaMode":"OPAQUE",
		"doubleSided":false,
		"name":"Mat.1"
	}]
}