<?xml version="1.0" encoding="utf-8"?>
<!-- Generator: Adobe Illustrator 27.5.0, SVG Export Plug-In . SVG Version: 6.00 Build 0)  -->
<svg version="1.1" id="Calque_1" xmlns="http://www.w3.org/2000/svg" xmlns:xlink="http://www.w3.org/1999/xlink" x="0px" y="0px"
	 viewBox="0 0 1920 258.3" style="enable-background:new 0 0 1920 258.3;" xml:space="preserve">
<style type="text/css">
	.st0{fill:#FD89FF;}
</style>
<g>
	<path class="st0" d="M858,42.7c-17.8-8.9-38.9-14.6-62.6-14.6c-66.1,0-111.2,44.3-111.2,100.2c0,59.1,46.4,102.1,113.1,102.1
		c27,0,48-7,60.7-15.1v-27.3c-11.1,7.3-27.5,13-49.9,13c-56.4,0-93.1-32.9-93.1-80.4c0-42.9,35.6-77.8,79.9-77.8
		c16.2,0,31.3,4.6,43.7,10.3L858,92.1L858,42.7L858,42.7z"/>
</g>
<polygon class="st0" points="991.5,70.8 991.5,30.8 866.5,30.8 893,48.3 895.2,125 893,210.3 866.5,227.9 992.1,227.9 992.1,187.9 
	974.5,214.1 924.8,214.4 923.2,133.4 965.6,133.6 983.2,159.8 983.2,93.4 965.6,119.6 923.2,119.9 924.8,44.3 974,44.6 "/>
<polygon class="st0" points="1386,70.8 1386,30.8 1261,30.8 1287.5,48.3 1289.7,125 1287.5,210.3 1261,227.9 1386.6,227.9 
	1386.6,187.9 1369,214.1 1319.3,214.4 1317.7,133.4 1360.1,133.6 1377.7,159.8 1377.7,93.4 1360.1,119.6 1317.7,119.9 1319.3,44.3 
	1368.5,44.6 "/>
<g>
	<path class="st0" d="M1752,124.2l2.2-79.4h17.3c24.8,0,44,16.5,44,42.7c0,24-19.2,43.2-44,43.2h-19.2L1752,124.2z M1695.3,227.9
		h85.3l-26.5-17.6l-1.6-65.6h22.4l57.5,65.6l-10.5,17.6h65.1l-80.7-87.7c24-6.5,42.7-28.1,42.7-54c0-30-25.1-55.3-61.3-55.3h-92.3
		l26.5,17.5l2.2,75.9l-2.2,86.1L1695.3,227.9z"/>
</g>
<polygon class="st0" points="1688.4,70.8 1688.4,30.8 1563.4,30.8 1589.8,48.3 1592,125 1589.8,210.3 1563.4,227.9 1688.9,227.9 
	1688.9,187.9 1671.4,214.1 1621.7,214.4 1620.1,133.4 1662.5,133.6 1680,159.8 1680,93.4 1662.5,119.6 1620.1,119.9 1621.7,44.3 
	1670.8,44.6 "/>
<polygon class="st0" points="1199.8,30.8 1132.3,177.9 1062.3,30.8 1006.2,30.8 1032.1,48.3 1032.1,210.3 1006.2,227.9 
	1075.3,227.9 1048.8,210.3 1044.8,72.4 1123.1,230.6 1124.2,230.6 1198.7,72.1 1199.8,124.2 1197.9,210.3 1171.7,227.9 
	1224.6,227.9 1255.9,227.3 1229.7,210.3 1227.8,124.2 1229.4,48.3 1255.9,30.8 "/>
<polygon class="st0" points="1416.3,44.6 1461.9,44 1464.3,124.2 1462.2,210.3 1435.7,227.9 1521,227.9 1494.5,210.3 1492.4,124.2 
	1494.8,44 1541.5,44.6 1559.1,70.8 1559.1,30.8 1398.7,30.8 1398.7,70.8 "/>
<g>
	<path class="st0" d="M738.5,121.3c0,27.8,20.2,49.5,51,49.5c30.9,0,51.3-23.6,51.3-51.7c0-27.7-20.1-49.4-50.9-49.4
		C759,69.7,738.5,93.3,738.5,121.3 M787.3,76.9c21.6,0,35.9,19.6,35.8,45.6c0,21.6-9.6,41-31.2,41s-35.9-19.4-35.8-45.6
		C756.1,96.5,765.7,76.9,787.3,76.9"/>
	<path class="st0" d="M26,227.9h109.9c56.4,0,96.6-48.1,96.6-101.8c0-54.3-38.3-95.3-108-95.3H26l26.5,17.5l1.6,75.9l-1.9,86.1
		L26,227.9z M124.8,213.8H84.3l-2.2-89.6l2.2-79.4h27.8c51,0,85,33.2,85,88.8C197.2,174.4,170.4,213.8,124.8,213.8"/>
	<path class="st0" d="M283.9,142.3l1.1,13.8l-1.9,51c-6.2,1.1-13.2,1.9-21.1,1.9c-56.4,0-93.1-34.8-93.1-85.8
		c0-42.9,35.6-80.4,79.9-80.4c16.2,0,31.3,4.6,44,10.3L312,92.1V42.7c-17.8-8.9-38.9-14.6-62.6-14.6c-66.1,0-111.2,44.3-111.2,100.2
		c0,59.1,46.4,102.1,113.1,102.1c27,0,48-7,60.7-15.1l-2.2-59.1l1.1-13.8l27-17.6h-81L283.9,142.3z"/>
</g>
<polygon class="st0" points="346.2,44.6 391.9,44 394.3,124.2 392.1,210.3 365.7,227.9 451,227.9 424.5,210.3 422.4,124.2 424.8,44 
	471.5,44.6 489.1,70.8 489.1,30.8 328.7,30.8 328.7,70.8 "/>
<polygon class="st0" points="496.4,32 522.9,49.5 525,125.4 522.9,211.5 496.4,229.1 629.2,229.1 629.2,176.1 603,215.3 
	555.5,215.6 553.1,125.4 555.2,49.5 581.7,32 "/>
</svg>
